<svg enable-background="new 0 0 24 24" height="512" viewBox="0 0 24 24" width="512" xmlns="http://www.w3.org/2000/svg"><path d="m21.25 0h-18.5c-1.517 0-2.75 1.233-2.75 2.75v18.5c0 1.517 1.233 2.75 2.75 2.75h18.5c1.517 0 2.75-1.233 2.75-2.75v-18.5c0-1.517-1.233-2.75-2.75-2.75z" fill="#eceff1"/><path d="m8 17.25c0 .414-.336.75-.75.75h-3.5c-.414 0-.75-.336-.75-.75v-3.5c0-.414.336-.75.75-.75h3.5c.414 0 .75.336.75.75z" fill="#90a4ae"/><path d="m8 10.25c0 .414-.336.75-.75.75h-3.5c-.414 0-.75-.336-.75-.75v-3.5c0-.414.336-.75.75-.75h3.5c.414 0 .75.336.75.75z" fill="#00bcd4"/><path d="m14.5 17.25c0 .414-.336.75-.75.75h-3.5c-.414 0-.75-.336-.75-.75v-3.5c0-.414.336-.75.75-.75h3.5c.414 0 .75.336.75.75z" fill="#90a4ae"/><path d="m14.5 10.25c0 .414-.336.75-.75.75h-3.5c-.414 0-.75-.336-.75-.75v-3.5c0-.414.336-.75.75-.75h3.5c.414 0 .75.336.75.75z" fill="#00bcd4"/><path d="m21 17.25c0 .414-.336.75-.75.75h-3.5c-.414 0-.75-.336-.75-.75v-3.5c0-.414.336-.75.75-.75h3.5c.414 0 .75.336.75.75z" fill="#90a4ae"/><path d="m21 10.25c0 .414-.336.75-.75.75h-3.5c-.414 0-.75-.336-.75-.75v-3.5c0-.414.336-.75.75-.75h3.5c.414 0 .75.336.75.75z" fill="#00bcd4"/><path d="m21.25 24h-18.5c-1.517 0-2.75-1.233-2.75-2.75v-18.5c0-1.517 1.233-2.75 2.75-2.75h18.5c1.517 0 2.75 1.233 2.75 2.75v18.5c0 1.517-1.233 2.75-2.75 2.75zm-18.5-22.5c-.689 0-1.25.561-1.25 1.25v18.5c0 .689.561 1.25 1.25 1.25h18.5c.689 0 1.25-.561 1.25-1.25v-18.5c0-.689-.561-1.25-1.25-1.25z"/><path d="m7.25 11h-3.5c-.414 0-.75-.336-.75-.75v-3.5c0-.414.336-.75.75-.75h3.5c.414 0 .75.336.75.75v3.5c0 .414-.336.75-.75.75zm-2.75-1.5h2v-2h-2z"/><path d="m20.25 11h-3.5c-.414 0-.75-.336-.75-.75v-3.5c0-.414.336-.75.75-.75h3.5c.414 0 .75.336.75.75v3.5c0 .414-.336.75-.75.75zm-2.75-1.5h2v-2h-2z"/><path d="m13.75 11h-3.5c-.414 0-.75-.336-.75-.75v-3.5c0-.414.336-.75.75-.75h3.5c.414 0 .75.336.75.75v3.5c0 .414-.336.75-.75.75zm-2.75-1.5h2v-2h-2z"/><path d="m7.25 18h-3.5c-.414 0-.75-.336-.75-.75v-3.5c0-.414.336-.75.75-.75h3.5c.414 0 .75.336.75.75v3.5c0 .414-.336.75-.75.75zm-2.75-1.5h2v-2h-2z"/><path d="m20.25 18h-3.5c-.414 0-.75-.336-.75-.75v-3.5c0-.414.336-.75.75-.75h3.5c.414 0 .75.336.75.75v3.5c0 .414-.336.75-.75.75zm-2.75-1.5h2v-2h-2z"/><path d="m13.75 18h-3.5c-.414 0-.75-.336-.75-.75v-3.5c0-.414.336-.75.75-.75h3.5c.414 0 .75.336.75.75v3.5c0 .414-.336.75-.75.75zm-2.75-1.5h2v-2h-2z"/></svg>